<svg xmlns="http://www.w3.org/2000/svg" viewBox="0 0 192 192">
  <rect width="192" height="192" rx="36" fill="#2D3748"/>
  <line x1="53.77817459305202" y1="53.77817459305202" x2="88.22182540694797" y2="88.22182540694797" stroke="#FB923C" stroke-width="2.5" stroke-linecap="round"/>
  <polygon points="88.22182540694797,88.22182540694797 79.02943725152286,84.68629150101523 84.68629150101523,79.02943725152286" fill="#FB923C"/>
  <line x1="103.77817459305203" y1="103.77817459305203" x2="138.22182540694797" y2="138.22182540694797" stroke="#FB923C" stroke-width="2.5" stroke-linecap="round"/>
  <polygon points="138.22182540694797,138.22182540694797 129.02943725152286,134.68629150101523 134.68629150101523,129.02943725152286" fill="#FB923C"/>
  <line x1="138.22182540694797" y1="53.77817459305202" x2="103.77817459305203" y2="88.22182540694797" stroke="#5EEAD4" stroke-width="2.5" stroke-linecap="round"/>
  <polygon points="103.77817459305203,88.22182540694797 107.31370849898477,79.02943725152286 112.97056274847714,84.68629150101523" fill="#5EEAD4"/>
  <line x1="88.22182540694797" y1="103.77817459305203" x2="53.77817459305202" y2="138.22182540694797" stroke="#5EEAD4" stroke-width="2.5" stroke-linecap="round"/>
  <polygon points="53.77817459305202,138.22182540694797 57.31370849898476,129.02943725152286 62.97056274847714,134.68629150101523" fill="#5EEAD4"/>
  <circle cx="146" cy="46" r="11" fill="#2EC4B6"/>
  <circle cx="46" cy="146" r="11" fill="#2EC4B6"/>
  <circle cx="96"  cy="96"  r="11" fill="#2EC4B6"/>
  <circle cx="46" cy="46" r="11" fill="#2EC4B6"/>
  <circle cx="46" cy="46" r="11" fill="none" stroke="#FB923C" stroke-width="2.5"/>
  <circle cx="146" cy="146" r="11" fill="#2EC4B6"/>
  <circle cx="146" cy="146" r="11" fill="none" stroke="#FB923C" stroke-width="2.5"/>
</svg>